<?xml version="1.0" encoding="utf-8"?>
<!-- Generator: Adobe Illustrator 24.1.0, SVG Export Plug-In . SVG Version: 6.00 Build 0)  -->
<svg version="1.1" id="Layer_1" xmlns="http://www.w3.org/2000/svg" xmlns:xlink="http://www.w3.org/1999/xlink" x="0px" y="0px"
	 viewBox="0 0 379 379" style="enable-background:new 0 0 379 379;" xml:space="preserve">
<desc>Created with Sketch.</desc>
<g>
	<path d="M309.6,270.1L151.9,119.4c-2.5-2.4-2.6-6.3-0.1-8.8l16.3-16.3c9.3-9.3,22.3-12.4,34.1-9.3c2.9,1,3.2-0.2,0.7-2.7
		l-11.3-11.3c-13.9-13.9-36.5-13.9-50.4,0L126.1,86c-2.5,2.5-6.5,2.5-9,0.1l-0.9-0.9c-2.5-2.4-6.6-2.4-9,0.1l-17.8,17.8
		c-2.5,2.5-2.5,6.5-0.1,9l0.9,0.9c2.4,2.5,2.4,6.6-0.1,9l-16.3,16.3c-2.5,2.5-6.5,2.5-8.9,0l-0.9-0.9c-2.5-2.5-6.5-2.5-8.9,0
		l-10.6,10.6c-2.5,2.5-2.5,6.5,0,8.9L80,192.8c2.5,2.5,6.5,2.5,8.9,0l10.6-10.6c2.5-2.5,2.5-6.5,0-8.9l-0.8-0.8
		c-2.5-2.5-2.5-6.5,0-8.9l15.8-15.8c2.5-2.5,6.4-2.4,8.8,0.1l150.8,157.7c2.4,2.5,6.4,2.6,8.8,0.1l26.8-26.8
		C312.1,276.5,312.1,272.5,309.6,270.1z"/>
	<path d="M189,4.3C87.1,4.3,4.3,87.1,4.3,189S87.1,373.7,189,373.7c101.9,0,184.7-82.9,184.7-184.7S290.9,4.3,189,4.3z M189,355.7
		c-91.9,0-166.7-74.8-166.7-166.7S97.1,22.3,189,22.3S355.7,97.1,355.7,189S280.9,355.7,189,355.7z"/>
</g>
</svg>
