<?xml version="1.0" encoding="utf-8"?>
<!-- Generator: Adobe Illustrator 24.1.0, SVG Export Plug-In . SVG Version: 6.00 Build 0)  -->
<svg version="1.1" id="Layer_1" xmlns="http://www.w3.org/2000/svg" xmlns:xlink="http://www.w3.org/1999/xlink" x="0px" y="0px"
	 viewBox="0 0 486 155" style="enable-background:new 0 0 486 155;" xml:space="preserve">
<g>
	<g>
		<path d="M192.2,75.9c0-38,21.6-58.8,72.1-58.8c50.3,0,72.1,21,72.1,58.8c0,38-21.8,59.1-72.1,59.1
			C213.8,135.1,192.2,114.1,192.2,75.9z M306.9,75.9c0-23.3-11.8-34.1-42.6-34.1c-30.8,0-42.6,10.7-42.6,34.1
			c0,23.6,12,34.4,42.6,34.4C294.9,110.3,306.9,99.3,306.9,75.9z"/>
		<path d="M310.9,75.9c0-38,21.6-58.8,72.1-58.8c50.3,0,72.1,21,72.1,58.8c0,38-21.8,59.1-72.1,59.1
			C332.6,135.1,310.9,114.1,310.9,75.9z M425.6,75.9c0-23.3-11.8-34.1-42.6-34.1c-30.8,0-42.6,10.7-42.6,34.1
			c0,23.6,12,34.4,42.6,34.4C413.7,110.3,425.6,99.3,425.6,75.9z"/>
	</g>
	<path d="M485,2.5H147.6v0.4H1.3V153h150.1v-0.4H485V2.5z M147.2,148.8H5.6V7.2h141.6V148.8z M480.7,148.4H151.9V6.8h328.9V148.4z"
		/>
	<path d="M104,99.9c-5.4,3.1-9.7,0.6-9.7-5.6c0-6.2,4.3-13.7,9.7-16.8c3.4-2,6.4-1.7,8.1,0.4l11.6-6.7V49.8L74.9,21.7L56.8,32.1
		l12.8,7.4c4.4-0.5,9.1,0.2,12.5,2.2c5.4,3.1,5.4,8.1,0.1,11.2c-5.3,3.1-14,3.1-19.4,0c-3.4-2-4.6-4.7-3.8-7.2l-12.8-7.4l-20,11.6
		v56.3l6.2,3.6c2.3-8.9,4-18.4,5.1-28.7c0.7-6.5,1.1-13,1.2-19.6c12.3,20.4,24.3,47.1,32.5,70.7l3.8,2.2l48.9-28.1V83.5l-11.6,6.7
		C110.4,94.2,107.4,98,104,99.9z"/>
</g>
</svg>
